{"title":"WWE.Smackdown.2011.08.12.ETWD.HDTV","uid":6602074,"size":1037491694,"categoryP":"video","categoryS":"tv_shows","magnet":"?xt=urn:btih:0bc16e8b4a2c91fa38e8a900e16e4d14d352b31f&amp;dn=WWE.Smackdown.2011.08.12.ETWD.HDTV&amp;tr=udp%3A%2F%2Ftracker.openbittorrent.com%3A80&amp;tr=udp%3A%2F%2Fopen.demonii.com%3A1337&amp;tr=udp%3A%2F%2Ftracker.coppersurfer.tk%3A6969&amp;tr=udp%3A%2F%2Fexodus.desync.com%3A6969","seeders":0,"leechers":1,"uploader":"sidwwegame","files":2,"time":1313245381,"description":"________________**WrestlingForum.info Presents**___________________\n\nWWE SMACKDOWN\n\n\n__________________________________________________ _____________\n\n\nFormat                           : MPEG-4\nFormat profile                   : Base Media\nCodec ID                         : isom\nFile size                        : 493 MiB\nDuration                         : 1. 28 min\nOverall bit rate                 : 1 557 Kbps\n\n\nVideo\nID                               : 1\nFormat                           : AVC\nFormat/Info                      : Advanced Video Codec\nFormat profile                   : &lt;a class=&quot;__cf_email__&quot; href=&quot;/cdn-cgi/l/email-protection&quot; data-cfemail=&quot;5d15343a351d116e736d&quot;&gt;[email&amp;#160;protected]&lt;/a&gt;&lt;script cf-hash='f9e31' type=&quot;text/javascript&quot;&gt;\n/* &lt;![CDATA[ */!function(){try{var t=&quot;currentScript&quot;in document?document.currentScript:function(){for(var t=document.getElementsByTagName(&quot;script&quot;),e=t.length;e--;)if(t[e].getAttribute(&quot;cf-hash&quot;))return t[e]}();if(t&amp;&amp;t.previousSibling){var e,r,n,i,c=t.previousSibling,a=c.getAttribute(&quot;data-cfemail&quot;);if(a){for(e=&quot;&quot;,r=parseInt(a.substr(0,2),16),n=2;a.length-n;n+=2)i=parseInt(a.substr(n,2),16)^r,e+=String.fromCharCode(i);e=document.createTextNode(e),c.parentNode.replaceChild(e,c)}}}catch(u){}}();/* ]]&gt; */&lt;/script&gt;\nFormat settings, CABAC           : Yes\nFormat settings, ReFrames        : 5 frames\nFormat settings, GOP             : M=4, N=13\nCodec ID                         : avc1\nCodec ID/Info                    : Advanced Video Coding\nDuration                         : 44mn 18s\nBit rate mode                    : Variable\nBit rate                         : 1 383 Kbps\nWidth                            : 704 pixels\nHeight                           : 400 pixels\nDisplay aspect ratio             : 16:9\nFrame rate mode                  : Constant\nFrame rate                       : 29.970 fps\nColor space                      : YUV\nChroma subsampling               : 4:2:0\nBit depth                        : 8 bits\nScan type                        : Progressive\nBits/(Pixel*Frame)               : 0.164\nStream size                      : 440 MiB (89%)\nWriting library                  : x264 core 110\n\n\nAudio\nID                               : 2\nFormat                           : AAC\nFormat/Info                      : Advanced Audio Codec\nFormat version                   : Version 4\nFormat profile                   : LC\nFormat settings, SBR             : No\nCodec ID                         : 40\nDuration                         : 44mn 18s\nBit rate mode                    : Variable\nBit rate                         : 165 Kbps\nChannel(s)                       : 2 channels\nChannel positions                : Front: L R\nSampling rate                    : 48.0 KHz\nStream size                      : 52.4 MiB (11%)\nTagged date                      : UTC 2011-08-12 12:13:44\n\n\n_____________________________________________________________________\n\n            *****   ETWD @@@.....****\n","torrent":{"xt":"urn:btih:0bc16e8b4a2c91fa38e8a900e16e4d14d352b31f","amp;dn":"WWE.Smackdown.2011.08.12.ETWD.HDTV","amp;tr":["udp%3A%2F%2Ftracker.openbittorrent.com%3A80","udp%3A%2F%2Fopen.demonii.com%3A1337","udp%3A%2F%2Ftracker.coppersurfer.tk%3A6969","udp%3A%2F%2Fexodus.desync.com%3A6969"],"infoHash":"0bc16e8b4a2c91fa38e8a900e16e4d14d352b31f","infoHashBuffer":{"type":"Buffer","data":[11,193,110,139,74,44,145,250,56,232,169,0,225,110,77,20,211,82,179,31]},"announce":[],"urlList":[]}}